<svg width="43" height="44" viewBox="0 0 43 44" fill="none" xmlns="http://www.w3.org/2000/svg">
<path d="M21.2817 37.8559C30.0387 37.8559 37.1377 30.757 37.1377 22C37.1377 13.243 30.0387 6.14404 21.2817 6.14404M21.2817 37.8559C12.5247 37.8559 5.42578 30.757 5.42578 22C5.42578 13.243 12.5247 6.14404 21.2817 6.14404M21.2817 37.8559C17.4505 37.8559 14.3447 30.757 14.3447 22C14.3447 13.243 17.4505 6.14404 21.2817 6.14404M21.2817 37.8559C25.1129 37.8559 28.2187 30.757 28.2187 22C28.2187 13.243 25.1129 6.14404 21.2817 6.14404M8.39877 29.7067C11.3036 28.0433 16.1298 26.955 21.5924 26.955C27.2937 26.955 32.3017 28.1405 35.1557 29.928M8.39877 14.2933C11.3036 15.9567 16.1298 17.045 21.5924 17.045C27.2937 17.045 32.3017 15.8595 35.1557 14.072" stroke="white" stroke-width="3.52354"/>
</svg>
