<svg width="103" height="46" viewBox="0 0 103 46" fill="none" xmlns="http://www.w3.org/2000/svg">
<path d="M36.9026 13.7039C36.8748 16.0644 36.1654 17.7945 34.7744 18.8945C33.402 19.9946 31.4311 20.5295 28.8616 20.4993C26.2921 20.469 24.325 19.8877 22.9603 18.7553C21.6142 17.6231 20.9551 15.8768 20.9829 13.5164L20.9858 13.2694L26.7672 13.3375L26.7646 13.5571C26.7545 14.4171 26.9055 15.0319 27.2177 15.4016C27.5486 15.7715 28.0491 15.9604 28.7194 15.9683C29.3897 15.9762 29.8853 15.799 30.2062 15.4368C30.5456 15.0748 30.7204 14.4638 30.7305 13.6038L30.8754 1.30767L37.0478 1.38039L36.9026 13.7039Z" fill="white"/>
<path d="M74.578 1.82254C75.5462 1.83395 76.4283 2.04564 77.2242 2.45763C78.0389 2.85153 78.6748 3.40803 79.1319 4.12713C79.6076 4.84644 79.8403 5.64525 79.8299 6.52354C79.8026 8.84736 78.7147 10.2986 76.5663 10.8772L76.565 10.987C78.9977 11.5646 80.1988 13.1526 80.1682 15.7509C80.1565 16.739 79.8948 17.6143 79.383 18.3769C78.8901 19.1214 78.2129 19.699 77.3514 20.1098C76.49 20.5205 75.5472 20.7199 74.5232 20.7078L61.564 20.5551L61.7864 1.67184L74.578 1.82254ZM67.8721 9.10026L72.1174 9.15028C72.527 9.1551 72.8638 9.02182 73.1277 8.75042C73.4104 8.46095 73.5543 8.10579 73.5592 7.68494L73.5625 7.41047C73.5672 7.00792 73.4316 6.66777 73.1555 6.39001C72.8797 6.09396 72.5462 5.94362 72.1552 5.93902L67.91 5.889L67.8721 9.10026ZM67.788 16.2364L72.4802 16.2917C72.8898 16.2965 73.2266 16.1632 73.4905 15.8918C73.7732 15.6023 73.9171 15.2472 73.922 14.8263L73.9253 14.5519C73.9302 14.131 73.7947 13.7817 73.5186 13.504C73.2614 13.2081 72.928 13.0578 72.5183 13.053L67.8262 12.9977L67.788 16.2364Z" fill="white"/>
<path d="M45.5338 8.97137L45.7439 8.97384L45.7433 9.02996C45.7399 9.31869 45.9753 9.55555 46.2691 9.55902C46.5629 9.56248 46.8038 9.33122 46.8072 9.04249L46.8079 8.98638L51.1063 9.03702L51.1057 9.09313C51.1023 9.38186 51.3377 9.61873 51.6315 9.62219C51.9253 9.62565 52.1663 9.3944 52.1697 9.10567L52.1703 9.04955L52.7156 9.05598C53.2298 9.06204 53.6418 9.47655 53.6358 9.98183L53.6119 12.0094L44.5682 11.9028L44.592 9.87529C44.598 9.37001 45.0196 8.96531 45.5338 8.97137Z" fill="white"/>
<path d="M44.5508 13.4712L53.5924 13.5777C53.563 14.0621 53.1512 14.4431 52.6522 14.4372L45.4704 14.3526C44.9714 14.3467 44.5687 13.9561 44.5508 13.4712Z" fill="white"/>
<path d="M51.1187 7.99143L46.8202 7.94079L46.8246 7.57128C46.8297 7.13818 47.1911 6.7913 47.6318 6.79649L50.3343 6.82833C50.775 6.83352 51.1281 7.18882 51.123 7.62192L51.1187 7.99143Z" fill="white"/>
<path fill-rule="evenodd" clip-rule="evenodd" d="M49.0477 21.192C54.8137 21.2599 59.5421 16.7215 59.6088 11.0552C59.6756 5.38882 55.0554 0.740271 49.2895 0.672341C43.5235 0.604411 38.7951 5.14282 38.7284 10.8092C38.6616 16.4755 43.2818 21.1241 49.0477 21.192ZM43.4862 13.4587C43.4978 14.5212 44.3714 15.3854 45.4581 15.3982L52.6399 15.4828C53.7417 15.4958 54.6452 14.6285 54.6579 13.5458L54.6998 9.99437C54.7125 8.91163 53.8297 8.02337 52.7279 8.01039L52.1826 8.00397L52.187 7.63445C52.1989 6.62389 51.3749 5.79485 50.3466 5.78274L47.6441 5.7509C46.6158 5.73879 45.7725 6.54819 45.7606 7.55874L45.7562 7.92826L45.5461 7.92578C44.4443 7.9128 43.5408 8.78001 43.5281 9.86276L43.4857 13.4587L43.4862 13.4587Z" fill="white"/>
<path d="M40.4546 44.8355L39.676 42.1637L32.945 42.0844L32.1037 44.7372L25.7917 44.6628L33.0244 25.8621L40.2023 25.9466L46.99 44.9125L40.4546 44.8355ZM34.2796 37.8727L38.441 37.9217L36.5094 31.1736L36.3976 31.1723L34.2796 37.8727Z" fill="white"/>
<path d="M73.4074 26.0084C76.2561 26.042 78.5008 26.773 80.1413 28.2014C81.7821 29.6116 82.5872 31.6158 82.5566 34.2141L76.6635 34.1447C76.6764 33.0468 76.3887 32.1742 75.8005 31.5267C75.2308 30.8795 74.406 30.5495 73.3261 30.5368C72.0786 30.5221 71.1524 30.8955 70.5475 31.657C69.9613 32.4187 69.66 33.4857 69.6439 34.858L69.6232 36.6146C69.6072 37.9687 69.8832 39.0425 70.4511 39.8361C71.0379 40.6116 71.9364 41.0065 73.1467 41.0208C74.3383 41.0348 75.2449 40.7435 75.8665 40.1469C76.4881 39.5504 76.8053 38.7031 76.8182 37.6053L82.5158 37.6724C82.4854 40.2524 81.6522 42.219 80.0161 43.5722C78.3987 44.9257 76.119 45.5851 73.1771 45.5504C69.9001 45.5118 67.4241 44.6592 65.7491 42.9924C64.0928 41.3259 63.2836 38.8824 63.3215 35.662C63.3595 32.4416 64.226 30.0178 65.9212 28.3908C67.6349 26.7639 70.1303 25.9698 73.4074 26.0084Z" fill="white"/>
<path d="M57.2912 30.9793L57.1257 45.0319L50.9533 44.9592L51.1189 30.9065L44.8069 30.8322L44.8638 26.0016L63.6322 26.2227L63.5753 31.0533L57.2912 30.9793Z" fill="white"/>
<path d="M17.4861 44.5649L17.5663 37.7582C17.5762 36.9165 17.6143 36.0568 17.6805 35.1792C17.7655 34.2835 17.8488 33.5341 17.9304 32.9312C18.012 32.3282 18.0631 31.9445 18.0836 31.7801L17.9719 31.7787L14.2742 44.5271L9.44248 44.4702L6.01789 31.6654L5.90618 31.6641C5.92286 31.829 5.96487 32.2138 6.03224 32.8185C6.11844 33.4051 6.19349 34.1471 6.25741 35.0446C6.32154 35.9238 6.34865 36.7842 6.33874 37.6259L6.25855 44.4327L0.588905 44.3659L0.811372 25.4826L9.52529 25.5852L12.3016 36.5158L12.4133 36.5171L15.4184 25.6547L23.8251 25.7537L23.6026 44.637L17.4861 44.5649Z" fill="white"/>
<path d="M96.2716 44.8395L96.356 37.676L89.5692 37.596L89.4848 44.7596L83.3124 44.6869L83.5349 25.8036L89.7072 25.8763L89.6261 32.7654L96.4129 32.8454L96.494 25.9562L102.666 26.029L102.444 44.9123L96.2716 44.8395Z" fill="white"/>
</svg>
