<svg width="38" height="38" viewBox="0 0 38 38" fill="none" xmlns="http://www.w3.org/2000/svg">
<path d="M7.43766 31.6847C8.25013 30.7747 12.0553 26.5873 13.1705 26.5873H24.9609C26.5769 26.5873 29.8755 30.0584 30.693 31.2819M35.9783 18.9999C35.9783 28.3407 28.4061 35.9129 19.0653 35.9129C9.72455 35.9129 2.15234 28.3407 2.15234 18.9999C2.15234 9.65912 9.72455 2.08691 19.0653 2.08691C28.4061 2.08691 35.9783 9.65912 35.9783 18.9999ZM25.1238 13.2353C25.1238 10.0086 22.3999 7.37223 19.0659 7.37223C15.7319 7.37223 13.0079 10.0086 13.0079 13.2353C13.0079 16.462 15.7319 19.0984 19.0659 19.0984C22.3998 19.0984 25.1238 16.462 25.1238 13.2353Z" stroke="white" stroke-width="3.52354"/>
</svg>
