<svg width="33" height="33" viewBox="0 0 33 33" fill="none" xmlns="http://www.w3.org/2000/svg">
<path d="M0 16.5C0 7.3873 7.3873 0 16.5 0C25.6127 0 33 7.3873 33 16.5C33 25.6127 25.6127 33 16.5 33C7.3873 33 0 25.6127 0 16.5Z" fill="black"/>
<path fill-rule="evenodd" clip-rule="evenodd" d="M20.1211 6.59961C20.2938 7.77291 19.8162 8.92237 19.1862 9.73562C18.5122 10.6079 17.3504 11.2826 16.2248 11.2474C16.0193 10.1241 16.5454 8.96666 17.1856 8.18862C17.8878 7.32994 19.0914 6.67117 20.1211 6.59961ZM23.5024 23.1143C24.0827 22.225 24.2995 21.7763 24.75 20.7723C21.4736 19.5263 20.9486 14.8683 24.1911 13.0805C23.2021 11.8402 21.8123 11.1212 20.5004 11.1212C19.5551 11.1212 18.9074 11.3679 18.3186 11.5921C17.8279 11.779 17.3781 11.9503 16.831 11.9503C16.2399 11.9503 15.7163 11.7626 15.1682 11.5661C14.5658 11.3501 13.9337 11.1235 13.1493 11.1235C11.677 11.1235 10.11 12.023 9.11642 13.5609C7.71981 15.727 7.95804 19.7989 10.2229 23.2677C11.0324 24.5091 12.114 25.9039 13.5286 25.9164C14.1156 25.9222 14.5062 25.747 14.9289 25.5575C15.4128 25.3405 15.9386 25.1046 16.8491 25.0998C17.7649 25.0943 18.2825 25.333 18.7599 25.5532C19.1717 25.7431 19.5537 25.9193 20.1357 25.913C21.5515 25.9016 22.6929 24.3558 23.5024 23.1143Z" fill="white"/>
</svg>
