<svg width="36" height="36" viewBox="0 0 36 36" fill="none" xmlns="http://www.w3.org/2000/svg">
<path d="M17.8622 33.6231C26.6192 33.6231 33.7182 26.5242 33.7182 17.7672C33.7182 9.01019 26.6192 1.91124 17.8622 1.91124M17.8622 33.6231C9.10522 33.6231 2.00628 26.5242 2.00628 17.7672C2.00628 9.01019 9.10522 1.91124 17.8622 1.91124M17.8622 33.6231C14.031 33.6231 10.9252 26.5242 10.9252 17.7672C10.9252 9.01019 14.031 1.91124 17.8622 1.91124M17.8622 33.6231C21.6934 33.6231 24.7992 26.5242 24.7992 17.7672C24.7992 9.01019 21.6934 1.91124 17.8622 1.91124M4.97926 25.4739C7.88411 23.8105 12.7103 22.7222 18.1729 22.7222C23.8742 22.7222 28.8822 23.9077 31.7362 25.6952M4.97926 10.0605C7.88411 11.7239 12.7103 12.8122 18.1729 12.8122C23.8742 12.8122 28.8822 11.6267 31.7362 9.83921" stroke="white" stroke-width="3.52354"/>
</svg>
