<svg width="27" height="27" viewBox="0 0 27 27" fill="none" xmlns="http://www.w3.org/2000/svg">
<g clip-path="url(#clip0_476_841)">
<path d="M13.4995 11.0449V16.2731H20.7649C20.4459 17.9545 19.4885 19.3782 18.0526 20.3354L22.434 23.735C24.9867 21.3787 26.4594 17.9178 26.4594 13.8064C26.4594 12.8492 26.3736 11.9286 26.214 11.0451L13.4995 11.0449Z" fill="#4285F4"/>
<path d="M5.93419 16.0693L4.94603 16.8258L1.44824 19.5503C3.6696 23.9561 8.22244 26.9998 13.4997 26.9998C17.1446 26.9998 20.2005 25.7971 22.4341 23.7353L18.0528 20.3357C16.8501 21.1457 15.316 21.6367 13.4997 21.6367C9.98969 21.6367 7.00751 19.2681 5.9397 16.0771L5.93419 16.0693Z" fill="#34A853"/>
<path d="M1.44808 7.44922C0.527672 9.26551 0 11.3151 0 13.4996C0 15.6841 0.527672 17.7337 1.44808 19.55C1.44808 19.5622 5.93997 16.0645 5.93997 16.0645C5.66997 15.2545 5.51038 14.3955 5.51038 13.4995C5.51038 12.6034 5.66997 11.7444 5.93997 10.9344L1.44808 7.44922Z" fill="#FBBC05"/>
<path d="M13.5 5.37545C15.4882 5.37545 17.2554 6.0627 18.6668 7.38818L22.5326 3.52232C20.1885 1.33781 17.145 0 13.5 0C8.22272 0 3.6696 3.03136 1.44824 7.44955L5.94 10.935C7.00766 7.74407 9.98997 5.37545 13.5 5.37545Z" fill="#EA4335"/>
</g>
<defs>
<clipPath id="clip0_476_841">
<rect width="27" height="27" fill="white"/>
</clipPath>
</defs>
</svg>
