<svg width="202" height="89" viewBox="0 0 202 89" fill="none" xmlns="http://www.w3.org/2000/svg">
<path d="M72.2509 26.337C72.1963 30.9719 70.8033 34.3692 68.072 36.5291C65.3772 38.6893 61.5071 39.7397 56.4617 39.6803C51.4163 39.6208 47.5537 38.4793 44.874 36.2558C42.2309 34.0326 40.9366 30.6036 40.9912 25.9687L40.9969 25.4837L52.3491 25.6174L52.3441 26.0486C52.3242 27.7373 52.6207 28.9446 53.2338 29.6705C53.8835 30.3968 54.8664 30.7677 56.1826 30.7832C57.4988 30.7987 58.4719 30.4509 59.1019 29.7396C59.7684 29.0288 60.1117 27.829 60.1315 26.1403L60.416 1.99586L72.536 2.13865L72.2509 26.337Z" fill="white"/>
<path d="M146.23 3.00685C148.131 3.02924 149.863 3.44493 151.426 4.25389C153.026 5.02736 154.274 6.1201 155.172 7.53211C156.106 8.94455 156.563 10.5131 156.543 12.2377C156.489 16.8007 154.353 19.6503 150.134 20.7864L150.132 21.002C154.908 22.1363 157.267 25.2544 157.207 30.3564C157.184 32.2966 156.67 34.0153 155.665 35.5127C154.697 36.9746 153.367 38.1089 151.676 38.9154C149.984 39.722 148.133 40.1134 146.122 40.0897L120.676 39.79L121.112 2.71093L146.23 3.00685ZM133.062 17.2973L141.398 17.3955C142.203 17.405 142.864 17.1433 143.382 16.6103C143.937 16.0419 144.22 15.3446 144.229 14.5182L144.236 13.9792C144.245 13.1888 143.979 12.5209 143.437 11.9755C142.895 11.3941 142.24 11.099 141.473 11.0899L133.137 10.9917L133.062 17.2973ZM132.897 31.3097L142.111 31.4183C142.915 31.4277 143.576 31.166 144.094 30.6331C144.65 30.0647 144.932 29.3673 144.942 28.5409L144.948 28.002C144.958 27.1756 144.692 26.4897 144.15 25.9443C143.645 25.3634 142.99 25.0682 142.186 25.0588L132.972 24.9502L132.897 31.3097Z" fill="white"/>
<path d="M89.199 17.0442L89.6116 17.0491L89.6103 17.1592C89.6037 17.7262 90.0659 18.1913 90.6429 18.1981C91.2198 18.2049 91.6929 17.7508 91.6995 17.1838L91.7008 17.0737L100.141 17.1731L100.14 17.2833C100.133 17.8502 100.596 18.3153 101.172 18.3221C101.749 18.3289 102.222 17.8748 102.229 17.3079L102.23 17.1977L103.301 17.2103C104.311 17.2222 105.12 18.0362 105.108 19.0283L105.061 23.0096L87.3029 22.8004L87.3498 18.8191C87.3615 17.827 88.1894 17.0323 89.199 17.0442Z" fill="white"/>
<path d="M87.2688 25.88L105.023 26.0892C104.965 27.0403 104.156 27.7884 103.177 27.7768L89.0745 27.6107C88.0947 27.5991 87.3039 26.8322 87.2688 25.88Z" fill="white"/>
<path d="M100.165 15.12L91.725 15.0206L91.7336 14.295C91.7436 13.4446 92.4532 12.7634 93.3186 12.7736L98.6252 12.8361C99.4906 12.8463 100.184 13.544 100.174 14.3944L100.165 15.12Z" fill="white"/>
<path fill-rule="evenodd" clip-rule="evenodd" d="M96.0989 41.0405C107.421 41.1738 116.705 32.2623 116.837 21.1359C116.968 10.0095 107.896 0.881716 96.5736 0.74833C85.2516 0.614944 75.9671 9.52651 75.836 20.6529C75.7049 31.7792 84.777 40.9071 96.0989 41.0405ZM85.1784 25.8554C85.2011 27.9417 86.9166 29.6386 89.0503 29.6638L103.152 29.8299C105.316 29.8554 107.09 28.1526 107.115 26.0265L107.197 19.0529C107.222 16.9269 105.489 15.1827 103.325 15.1572L102.255 15.1446L102.263 14.419C102.287 12.4347 100.669 10.8068 98.6494 10.783L93.3428 10.7205C91.3236 10.6967 89.6678 12.2861 89.6444 14.2704L89.6358 14.996L89.2232 14.9911C87.0598 14.9656 85.2857 16.6685 85.2606 18.7945L85.1774 25.8554L85.1784 25.8554Z" fill="white"/>
<path d="M79.2256 87.4666L77.6967 82.2202L64.4799 82.0645L62.8279 87.2734L50.4337 87.1274L64.6358 50.2106L78.7301 50.3766L92.0585 87.6178L79.2256 87.4666ZM67.1004 73.7945L75.2718 73.8908L71.4788 60.6403L71.2594 60.6377L67.1004 73.7945Z" fill="white"/>
<path d="M143.931 50.498C149.525 50.5639 153.933 51.9992 157.154 54.8041C160.376 57.5731 161.957 61.5086 161.896 66.6105L150.325 66.4742C150.35 64.3184 149.785 62.6049 148.63 61.3336C147.512 60.0627 145.892 59.4148 143.772 59.3898C141.322 59.3609 139.503 60.0941 138.316 61.5894C137.164 63.0851 136.573 65.1803 136.541 67.8749L136.501 71.3242C136.469 73.9829 137.011 76.0915 138.126 77.6498C139.279 79.1726 141.043 79.948 143.419 79.976C145.759 80.0035 147.539 79.4316 148.76 78.2602C149.98 77.0887 150.603 75.4251 150.629 73.2693L161.816 73.4011C161.757 78.4672 160.121 82.3288 156.908 84.986C153.732 87.6437 149.256 88.9385 143.479 88.8704C137.044 88.7946 132.183 87.1203 128.894 83.8475C125.641 80.5751 124.052 75.7771 124.127 69.4535C124.201 63.13 125.903 58.3708 129.231 55.1759C132.597 51.9815 137.496 50.4221 143.931 50.498Z" fill="white"/>
<path d="M112.286 60.2586L111.961 87.8523L99.8407 87.7095L100.166 60.1158L87.7716 59.9698L87.8834 50.4845L124.737 50.9186L124.625 60.404L112.286 60.2586Z" fill="white"/>
<path d="M34.1249 86.9353L34.2824 73.5696C34.3019 71.9168 34.3766 70.2288 34.5066 68.5055C34.6736 66.7467 34.8372 65.2753 34.9974 64.0914C35.1576 62.9074 35.2579 62.154 35.2983 61.8311L35.0789 61.8285L27.8181 86.861L18.3306 86.7492L11.6061 61.6058L11.3867 61.6033C11.4195 61.9271 11.502 62.6826 11.6343 63.87C11.8035 65.0219 11.9509 66.479 12.0764 68.2413C12.2023 69.9676 12.2556 71.6571 12.2361 73.3099L12.0787 86.6756L0.945821 86.5444L1.38265 49.4654L18.4932 49.667L23.9446 71.13L24.164 71.1326L30.0647 49.8033L46.572 49.9978L46.1352 87.0768L34.1249 86.9353Z" fill="white"/>
<path d="M188.827 87.4745L188.993 73.4082L175.666 73.2512L175.501 87.3175L163.381 87.1747L163.817 50.0957L175.937 50.2385L175.778 63.7658L189.105 63.9228L189.264 50.3955L201.384 50.5383L200.947 87.6173L188.827 87.4745Z" fill="white"/>
</svg>
