<svg width="39" height="38" viewBox="0 0 39 38" fill="none" xmlns="http://www.w3.org/2000/svg">
<path d="M8.01822 31.4519C8.8307 30.542 12.6359 26.3546 13.751 26.3546H25.5415C27.1574 26.3546 30.4561 29.8256 31.2736 31.0492M36.5589 18.7672C36.5589 28.108 28.9867 35.6802 19.6459 35.6802C10.3051 35.6802 2.73291 28.108 2.73291 18.7672C2.73291 9.4264 10.3051 1.85419 19.6459 1.85419C28.9867 1.85419 36.5589 9.4264 36.5589 18.7672ZM25.7044 13.0026C25.7044 9.7759 22.9804 7.1395 19.6464 7.1395C16.3125 7.1395 13.5885 9.7759 13.5885 13.0026C13.5885 16.2293 16.3125 18.8657 19.6464 18.8657C22.9804 18.8657 25.7044 16.2293 25.7044 13.0026Z" stroke="white" stroke-width="3.52354"/>
</svg>
